<svg width="20" height="30" viewBox="0 0 20 30" fill="none" xmlns="http://www.w3.org/2000/svg">
<g opacity="0.75">
<path d="M16.9745 3.07667C16.9745 4.77452 15.597 6.15205 13.8979 6.15205C12.2 6.15205 10.8225 4.77452 10.8225 3.07667C10.8225 1.37753 12.2 0 13.8979 0C15.597 0 16.9745 1.37753 16.9745 3.07667Z" fill="#19035A"/>
<path d="M10.7392 6.9908H17.0565C18.1463 6.9908 19.0317 7.87486 19.0317 8.96597L19.033 16.0996C19.033 17.1894 18.149 18.0748 17.0578 18.0748H16.5787V28.4765C16.5787 29.3163 15.8964 29.9986 15.0566 29.9986H12.743C11.9019 29.9986 11.2209 29.3163 11.2209 28.4765L11.2196 18.0748H10.7405C9.65069 18.0748 8.76531 17.1907 8.76531 16.0996V8.96463C8.764 7.87486 9.64936 6.99077 10.7392 6.99077L10.7392 6.9908Z" fill="#19035A"/>
<path d="M1.44936 13.1271H6.08178C6.88121 13.1271 7.53094 13.7742 7.53094 14.575V19.8064C7.53094 20.6058 6.88254 21.2542 6.08308 21.2542H5.73153V28.8828C5.73153 29.5 5.23286 30 4.61439 30H2.91655C2.29938 30 1.7994 29.5 1.7994 28.8828L1.80071 21.2542H1.44786C0.649733 21.2542 0 20.6058 0 19.8064V14.5737C0.00130193 13.7742 0.649699 13.1271 1.44916 13.1271H1.44936Z" fill="#19035A"/>
<path d="M6.02211 10.2563C6.02211 11.5023 5.01177 12.5114 3.76573 12.5114C2.5197 12.5114 1.51065 11.5023 1.51065 10.2563C1.51065 9.01026 2.5197 7.99991 3.76573 7.99991C5.01177 7.99991 6.02211 9.01026 6.02211 10.2563Z" fill="#19035A"/>
</g>
</svg>
